<mxfile host="app.diagrams.net" modified="2023-01-10T21:27:26.527Z" agent="5.0 (Windows NT 10.0; Win64; x64) AppleWebKit/537.36 (KHTML, like Gecko) Chrome/108.0.0.0 Safari/537.36" etag="Qaqo9MxqGDU1vIjI_wxW" version="20.8.3" type="github">
  <diagram id="C5RBs43oDa-KdzZeNtuy" name="Page-1">
    <mxGraphModel dx="1434" dy="764" grid="1" gridSize="10" guides="1" tooltips="1" connect="1" arrows="1" fold="1" page="1" pageScale="1" pageWidth="827" pageHeight="1169" math="0" shadow="0">
      <root>
        <mxCell id="WIyWlLk6GJQsqaUBKTNV-0" />
        <mxCell id="WIyWlLk6GJQsqaUBKTNV-1" parent="WIyWlLk6GJQsqaUBKTNV-0" />
        <mxCell id="m4TYHUsrz3e9QYSo6yOC-19" value="&lt;p style=&quot;border-color: var(--border-color); font-weight: 400; margin: 4px 0px 0px; line-height: 12px;&quot;&gt;&amp;lt;&amp;lt;control&amp;gt;&amp;gt;&lt;/p&gt;&lt;p style=&quot;border-color: var(--border-color); font-weight: 400; margin: 4px 0px 0px; line-height: 12px;&quot;&gt;&lt;b style=&quot;border-color: var(--border-color);&quot;&gt;Controller&lt;/b&gt;&lt;/p&gt;" style="swimlane;fontStyle=1;align=center;verticalAlign=top;childLayout=stackLayout;horizontal=1;startSize=40;horizontalStack=0;resizeParent=1;resizeParentMax=0;resizeLast=0;collapsible=1;marginBottom=0;html=1;" parent="WIyWlLk6GJQsqaUBKTNV-1" vertex="1">
          <mxGeometry x="320" y="130" width="200" height="90" as="geometry" />
        </mxCell>
        <mxCell id="m4TYHUsrz3e9QYSo6yOC-21" value="" style="line;strokeWidth=1;fillColor=none;align=left;verticalAlign=middle;spacingTop=-1;spacingLeft=3;spacingRight=3;rotatable=0;labelPosition=right;points=[];portConstraint=eastwest;strokeColor=inherit;" parent="m4TYHUsrz3e9QYSo6yOC-19" vertex="1">
          <mxGeometry y="40" width="200" height="30" as="geometry" />
        </mxCell>
        <mxCell id="m4TYHUsrz3e9QYSo6yOC-22" value="+mostraFrameStatistiche()" style="text;strokeColor=none;fillColor=none;align=left;verticalAlign=top;spacingLeft=4;spacingRight=4;overflow=hidden;rotatable=0;points=[[0,0.5],[1,0.5]];portConstraint=eastwest;" parent="m4TYHUsrz3e9QYSo6yOC-19" vertex="1">
          <mxGeometry y="70" width="200" height="20" as="geometry" />
        </mxCell>
        <mxCell id="m4TYHUsrz3e9QYSo6yOC-23" value="&lt;p style=&quot;border-color: var(--border-color); font-weight: 400; margin: 4px 0px 0px; line-height: 12px;&quot;&gt;&amp;lt;&amp;lt;boundary&amp;gt;&amp;gt;&lt;/p&gt;FrameStatistiche" style="swimlane;fontStyle=1;align=center;verticalAlign=top;childLayout=stackLayout;horizontal=1;startSize=40;horizontalStack=0;resizeParent=1;resizeParentMax=0;resizeLast=0;collapsible=1;marginBottom=0;html=1;" parent="WIyWlLk6GJQsqaUBKTNV-1" vertex="1">
          <mxGeometry x="300" y="280" width="260" height="140" as="geometry" />
        </mxCell>
        <mxCell id="m4TYHUsrz3e9QYSo6yOC-24" value="-selezionaInteresseSpinner: Spinner&#xa;-selezionaIntervalloDataInizio: EditText&#xa;-selezionaIntervalloDataFine: EditText&#xa;-adminNavigationBar: NavigationBar&#xa;&#xa;" style="text;strokeColor=none;fillColor=none;align=left;verticalAlign=top;spacingLeft=4;spacingRight=4;overflow=hidden;rotatable=0;points=[[0,0.5],[1,0.5]];portConstraint=eastwest;" parent="m4TYHUsrz3e9QYSo6yOC-23" vertex="1">
          <mxGeometry y="40" width="260" height="70" as="geometry" />
        </mxCell>
        <mxCell id="m4TYHUsrz3e9QYSo6yOC-25" value="" style="line;strokeWidth=1;fillColor=none;align=left;verticalAlign=middle;spacingTop=-1;spacingLeft=3;spacingRight=3;rotatable=0;labelPosition=right;points=[];portConstraint=eastwest;strokeColor=inherit;" parent="m4TYHUsrz3e9QYSo6yOC-23" vertex="1">
          <mxGeometry y="110" width="260" height="8" as="geometry" />
        </mxCell>
        <mxCell id="m4TYHUsrz3e9QYSo6yOC-26" value="+onClickselezionaInteresseSpinner()" style="text;strokeColor=none;fillColor=none;align=left;verticalAlign=top;spacingLeft=4;spacingRight=4;overflow=hidden;rotatable=0;points=[[0,0.5],[1,0.5]];portConstraint=eastwest;fontColor=#FFFFFF;" parent="m4TYHUsrz3e9QYSo6yOC-23" vertex="1">
          <mxGeometry y="118" width="260" height="22" as="geometry" />
        </mxCell>
        <mxCell id="eBYMcZXBUtMWWrFxVpQZ-0" value="" style="endArrow=none;html=1;edgeStyle=orthogonalEdgeStyle;rounded=0;fontColor=#FFFFFF;entryX=0.5;entryY=0;entryDx=0;entryDy=0;" edge="1" parent="WIyWlLk6GJQsqaUBKTNV-1" target="m4TYHUsrz3e9QYSo6yOC-23">
          <mxGeometry relative="1" as="geometry">
            <mxPoint x="430" y="223" as="sourcePoint" />
            <mxPoint x="490" y="390" as="targetPoint" />
          </mxGeometry>
        </mxCell>
        <mxCell id="eBYMcZXBUtMWWrFxVpQZ-1" value="1" style="edgeLabel;resizable=0;html=1;align=left;verticalAlign=bottom;fontColor=#FFFFFF;" connectable="0" vertex="1" parent="eBYMcZXBUtMWWrFxVpQZ-0">
          <mxGeometry x="-1" relative="1" as="geometry">
            <mxPoint y="17" as="offset" />
          </mxGeometry>
        </mxCell>
        <mxCell id="eBYMcZXBUtMWWrFxVpQZ-2" value="child" style="edgeLabel;resizable=0;html=1;align=right;verticalAlign=bottom;fontColor=#FFFFFF;" connectable="0" vertex="1" parent="eBYMcZXBUtMWWrFxVpQZ-0">
          <mxGeometry x="1" relative="1" as="geometry" />
        </mxCell>
        <mxCell id="eBYMcZXBUtMWWrFxVpQZ-3" value="1" style="text;html=1;align=center;verticalAlign=middle;resizable=0;points=[];autosize=1;strokeColor=none;fillColor=none;fontColor=#000000;" vertex="1" parent="WIyWlLk6GJQsqaUBKTNV-1">
          <mxGeometry x="422" y="216" width="30" height="30" as="geometry" />
        </mxCell>
        <mxCell id="eBYMcZXBUtMWWrFxVpQZ-4" value="0..1" style="text;html=1;align=center;verticalAlign=middle;resizable=0;points=[];autosize=1;strokeColor=none;fillColor=none;fontColor=#000000;" vertex="1" parent="WIyWlLk6GJQsqaUBKTNV-1">
          <mxGeometry x="422" y="257" width="40" height="30" as="geometry" />
        </mxCell>
      </root>
    </mxGraphModel>
  </diagram>
</mxfile>
